<svg width="53" height="53" viewBox="0 0 53 53" fill="none" xmlns="http://www.w3.org/2000/svg">
<path d="M15.4585 39.75C13.0293 39.75 11.0639 41.7375 11.0639 44.1667C11.0639 46.5959 13.0293 48.5834 15.4585 48.5834C17.8877 48.5834 19.8752 46.5959 19.8752 44.1667C19.8752 41.7375 17.8877 39.75 15.4585 39.75ZM2.2085 4.41669V8.83335H6.62516L14.5752 25.5946L11.5939 31.005C11.2406 31.6234 11.0418 32.3521 11.0418 33.125C11.0418 35.5542 13.0293 37.5417 15.4585 37.5417H41.9585V33.125H16.386C16.0768 33.125 15.8339 32.8821 15.8339 32.5729L15.9002 32.3079L17.8877 28.7084H34.3397C35.996 28.7084 37.4535 27.8029 38.2043 26.4338L46.1102 12.1017C46.2868 11.7925 46.3752 11.4171 46.3752 11.0417C46.3752 9.8271 45.3814 8.83335 44.1668 8.83335H11.5056L9.42975 4.41669H2.2085ZM37.5418 39.75C35.1127 39.75 33.1472 41.7375 33.1472 44.1667C33.1472 46.5959 35.1127 48.5834 37.5418 48.5834C39.971 48.5834 41.9585 46.5959 41.9585 44.1667C41.9585 41.7375 39.971 39.75 37.5418 39.75Z" fill="white"/>
</svg>
